<?xml version="1.0" encoding="UTF-8"?>
<svg xmlns="http://www.w3.org/2000/svg" xmlns:xlink="http://www.w3.org/1999/xlink" viewBox="0 0 24 24" width="24px" height="24px">
<g id="surface95305784">
<path style=" stroke:none;fill-rule:nonzero;fill:rgb(100%,100%,100%);fill-opacity:1;" d="M 21.582031 6.1875 C 21.351562 5.324219 20.675781 4.648438 19.8125 4.417969 C 18.253906 4 12 4 12 4 C 12 4 5.746094 4 4.1875 4.417969 C 3.324219 4.648438 2.648438 5.324219 2.417969 6.1875 C 2 7.746094 2 12 2 12 C 2 12 2 16.253906 2.417969 17.8125 C 2.648438 18.675781 3.324219 19.351562 4.1875 19.582031 C 5.746094 20 12 20 12 20 C 12 20 18.253906 20 19.8125 19.582031 C 20.675781 19.351562 21.351562 18.675781 21.582031 17.8125 C 22 16.253906 22 12 22 12 C 22 12 22 7.746094 21.582031 6.1875 Z M 10 14.597656 L 10 9.402344 C 10 9.015625 10.417969 8.777344 10.75 8.96875 L 15.25 11.566406 C 15.582031 11.757812 15.582031 12.242188 15.25 12.433594 L 10.75 15.03125 C 10.417969 15.222656 10 14.984375 10 14.597656 Z M 10 14.597656 "/>
</g>
</svg>
